<svg xmlns="http://www.w3.org/2000/svg" xmlns:xlink="http://www.w3.org/1999/xlink" fill="none" version="1.1" width="40" height="40" viewBox="0 0 40 40"><defs><clipPath id="master_svg0_2022_0420"><rect x="0" y="0" width="40" height="40" rx="0"/></clipPath><linearGradient x1="0.04500000178813934" y1="0.5" x2="0.9639999866485596" y2="0.8999999761581421" id="master_svg1_51_558"><stop offset="0%" stop-color="#FF71AD" stop-opacity="1"/><stop offset="100%" stop-color="#FFA852" stop-opacity="1"/></linearGradient><linearGradient x1="0.04500000178813934" y1="0.5" x2="0.9639999866485596" y2="0.8999999761581421" id="master_svg2_51_558"><stop offset="0%" stop-color="#FF71AD" stop-opacity="1"/><stop offset="100%" stop-color="#FFA852" stop-opacity="1"/></linearGradient><linearGradient x1="0.04500000178813934" y1="0.5" x2="0.9639999866485596" y2="0.8999999761581421" id="master_svg3_51_558"><stop offset="0%" stop-color="#FF71AD" stop-opacity="1"/><stop offset="100%" stop-color="#FFA852" stop-opacity="1"/></linearGradient></defs><g clip-path="url(#master_svg0_2022_0420)"><g><path d="M29.0152378125,22.00335693359375L22.3971778125,22.00335693359375C21.8439718125,22.00335693359375,21.3955078125,22.45182193359375,21.3955078125,23.00502693359375C21.3955078125,23.55823693359375,21.8439718125,24.00670693359375,22.3971778125,24.00670693359375L29.0152378125,24.00670693359375C29.5684478125,24.00670693359375,30.016917812499997,23.55823693359375,30.016917812499997,23.00502693359375C30.016917812499997,22.45182193359375,29.5684478125,22.00335693359375,29.0152378125,22.00335693359375ZM29.0152378125,26.26046693359375L22.3971778125,26.26046693359375C21.8439718125,26.26046693359375,21.3955078125,26.70893693359375,21.3955078125,27.26214693359375C21.3955078125,27.81535693359375,21.8439718125,28.263816933593752,22.3971778125,28.263816933593752L29.0152378125,28.263816933593752C29.5684478125,28.263816933593752,30.016917812499997,27.81535693359375,30.016917812499997,27.26214693359375C30.016917812499997,26.70893693359375,29.5684478125,26.26046693359375,29.0152378125,26.26046693359375Z" fill="url(#master_svg1_51_558)" fill-opacity="1"/></g><g><path d="M21.3955078125,12.988242265625C21.3955078125,13.541462265625,21.8441748125,13.989922265625001,22.3971778125,13.989922265625001L29.015007812500002,13.989922265625001C29.568017812500003,13.989922265625001,30.016687812500003,13.541462265625,30.016687812500003,12.988242265625C30.016687812500003,12.435035265625,29.568017812500003,11.986572265625,29.015007812500002,11.986572265625L22.3971778125,11.986572265625C21.8441748125,11.986572265625,21.3955078125,12.435035265625,21.3955078125,12.988242265625ZM21.3955078125,16.994942265625C21.3955078125,17.548152265625,21.8441748125,17.996612265625,22.3971778125,17.996612265625L29.015007812500002,17.996612265625C29.568017812500003,17.996612265625,30.016687812500003,17.548152265625,30.016687812500003,16.994942265625C30.016687812500003,16.441732265625,29.568017812500003,15.993272265625,29.015007812500002,15.993272265625L22.3971778125,15.993272265625C21.8441748125,15.993272265625,21.3955078125,16.441732265625,21.3955078125,16.994942265625Z" fill="#CCCCCC" fill-opacity="1"/></g><g><path d="M32.0200625,5.9765625L7.9799125,5.9765625C6.8750645,5.9765625,5.9765625,6.8750645,5.9765625,7.9799125L5.9765625,32.0200625C5.9765625,33.124962499999995,6.8750645,34.0234625,7.9799125,34.0234625L32.0200625,34.0234625C33.124962499999995,34.0234625,34.0234625,33.124962499999995,34.0234625,32.0200625L34.0234625,7.9799125C34.0234625,6.8750645,33.124962499999995,5.9765625,32.0200625,5.9765625ZM7.9799125,32.0200625L7.9799125,7.9799125L32.0200625,7.9799125L32.022062500000004,32.0200625L7.9799125,32.0200625Z" fill="#CCCCCC" fill-opacity="1"/></g><g><path d="M10.3278604375,14.386312265625C9.9163225375,14.750322265625,9.8748114375,15.377902265625,10.2348184375,15.792942265625L12.4575284375,18.308152265625C12.8373984375,18.740402265625,13.3856084375,18.987292265625,13.9610484375,18.985282265625C14.5631784375,18.987342265625,15.1336384375,18.715742265625,15.5116384375,18.247042265624998L19.2989684375,13.593272265625C19.6248984375,13.163192265625,19.5515584375,12.552211265625001,19.1330884375,12.211497265625C18.7146184375,11.870783265625,18.1014584375,11.922807965625,17.7463684375,12.329156265625L13.9590384375,16.980932265625L11.7353284375,14.465722265625C11.3673484375,14.057732265624999,10.7393984375,14.022302265625001,10.3278604375,14.386312265625Z" fill="url(#master_svg2_51_558)" fill-opacity="1"/></g><g><ellipse cx="14.657086849212646" cy="25.34223699569702" rx="4.0066962242126465" ry="4.0066962242126465" fill="url(#master_svg3_51_558)" fill-opacity="1"/></g></g></svg>
